<svg xmlns="http://www.w3.org/2000/svg" xmlns:xlink="http://www.w3.org/1999/xlink" width="130" zoomAndPan="magnify" viewBox="0 0 97.5 30.000001" height="40" preserveAspectRatio="xMidYMid meet" version="1.0"><defs><g/></defs><g fill="#ffffff" fill-opacity="1"><g transform="translate(16.646182, 18.115143)"><g/></g></g><g fill="#ffffff" fill-opacity="1"><g transform="translate(20.316622, 18.115143)"><g><path d="M 0.5625 -0.609375 C 0.5625 -1.097656 0.628906 -1.722656 0.765625 -2.484375 C 0.898438 -3.253906 1.207031 -4.164062 1.6875 -5.21875 L 4.359375 -4.28125 C 4.109375 -3.601562 3.914062 -3.019531 3.78125 -2.53125 C 3.65625 -2.050781 3.59375 -1.582031 3.59375 -1.125 C 3.59375 -0.175781 4 0.570312 4.8125 1.125 C 5.632812 1.6875 6.8125 1.96875 8.34375 1.96875 C 9.925781 1.96875 11.164062 1.816406 12.0625 1.515625 C 12.96875 1.222656 13.421875 0.789062 13.421875 0.21875 C 13.421875 -0.03125 13.222656 -0.273438 12.828125 -0.515625 C 12.429688 -0.765625 11.75 -1.0625 10.78125 -1.40625 L 11.5 -4.46875 C 12.726562 -3.945312 13.847656 -3.554688 14.859375 -3.296875 C 15.867188 -3.046875 16.765625 -2.921875 17.546875 -2.921875 C 18.085938 -2.921875 18.472656 -2.78125 18.703125 -2.5 C 18.941406 -2.21875 19.0625 -1.867188 19.0625 -1.453125 C 19.0625 -1.003906 18.90625 -0.628906 18.59375 -0.328125 C 18.289062 -0.0351562 17.867188 0.109375 17.328125 0.109375 L 16.328125 0.109375 C 16.359375 0.253906 16.375 0.378906 16.375 0.484375 C 16.375 0.597656 16.375 0.703125 16.375 0.796875 C 16.375 1.273438 16.207031 1.757812 15.875 2.25 C 15.550781 2.738281 15.050781 3.191406 14.375 3.609375 C 13.695312 4.035156 12.832031 4.375 11.78125 4.625 C 10.738281 4.875 9.5 5 8.0625 5 C 5.707031 5 3.867188 4.546875 2.546875 3.640625 C 1.222656 2.742188 0.5625 1.328125 0.5625 -0.609375 Z M 10.171875 10.03125 C 9.753906 10.03125 9.394531 9.882812 9.09375 9.59375 C 8.800781 9.300781 8.65625 8.945312 8.65625 8.53125 C 8.65625 8.113281 8.800781 7.753906 9.09375 7.453125 C 9.394531 7.148438 9.753906 7 10.171875 7 C 10.578125 7 10.921875 7.148438 11.203125 7.453125 C 11.492188 7.753906 11.640625 8.113281 11.640625 8.53125 C 11.640625 8.945312 11.492188 9.300781 11.203125 9.59375 C 10.921875 9.882812 10.578125 10.03125 10.171875 10.03125 Z M 6.421875 10.03125 C 6.003906 10.03125 5.644531 9.882812 5.34375 9.59375 C 5.050781 9.300781 4.90625 8.945312 4.90625 8.53125 C 4.90625 8.113281 5.050781 7.753906 5.34375 7.453125 C 5.644531 7.148438 6.003906 7 6.421875 7 C 6.828125 7 7.175781 7.148438 7.46875 7.453125 C 7.757812 7.753906 7.90625 8.113281 7.90625 8.53125 C 7.90625 8.945312 7.757812 9.300781 7.46875 9.59375 C 7.175781 9.882812 6.828125 10.03125 6.421875 10.03125 Z M 6.421875 10.03125 "/></g></g></g><g fill="#ffffff" fill-opacity="1"><g transform="translate(37.633829, 18.115143)"><g><path d="M 0 0.109375 L 0.21875 -2.921875 C 0.894531 -2.921875 1.414062 -2.925781 1.78125 -2.9375 C 2.15625 -2.957031 2.4375 -2.976562 2.625 -3 C 2.8125 -3.019531 2.96875 -3.035156 3.09375 -3.046875 C 2.9375 -3.191406 2.742188 -3.398438 2.515625 -3.671875 C 2.296875 -3.953125 2.09375 -4.304688 1.90625 -4.734375 C 1.726562 -5.171875 1.640625 -5.691406 1.640625 -6.296875 C 1.640625 -7.179688 1.867188 -7.953125 2.328125 -8.609375 C 2.785156 -9.273438 3.398438 -9.796875 4.171875 -10.171875 C 4.953125 -10.546875 5.828125 -10.734375 6.796875 -10.734375 C 7.660156 -10.734375 8.492188 -10.617188 9.296875 -10.390625 L 8.8125 -7.515625 C 8.519531 -7.585938 8.210938 -7.644531 7.890625 -7.6875 C 7.566406 -7.726562 7.289062 -7.75 7.0625 -7.75 C 6.34375 -7.75 5.769531 -7.582031 5.34375 -7.25 C 4.914062 -6.914062 4.703125 -6.476562 4.703125 -5.9375 C 4.703125 -5.519531 4.820312 -5.15625 5.0625 -4.84375 C 5.300781 -4.53125 5.570312 -4.28125 5.875 -4.09375 C 6.175781 -3.90625 6.421875 -3.78125 6.609375 -3.71875 C 7.078125 -3.863281 7.476562 -3.984375 7.8125 -4.078125 C 8.144531 -4.171875 8.492188 -4.285156 8.859375 -4.421875 C 9.222656 -4.566406 9.695312 -4.769531 10.28125 -5.03125 L 11.265625 -2.171875 C 10.046875 -1.578125 8.859375 -1.113281 7.703125 -0.78125 C 6.554688 -0.445312 5.359375 -0.210938 4.109375 -0.078125 C 2.867188 0.046875 1.5 0.109375 0 0.109375 Z M 0 0.109375 "/></g></g></g><g fill="#ffffff" fill-opacity="1"><g transform="translate(49.690931, 18.115143)"><g><path d="M 1.734375 0 L 1.28125 -15.859375 L 4.3125 -15.859375 L 4.765625 0 Z M 1.734375 0 "/></g></g></g><g fill="#ffffff" fill-opacity="1"><g transform="translate(55.600428, 18.115143)"><g><path d="M 4.71875 -2.921875 C 5.6875 -2.921875 6.328125 -3.046875 6.640625 -3.296875 C 6.960938 -3.554688 7.125 -3.84375 7.125 -4.15625 C 7.125 -4.5 7.023438 -4.898438 6.828125 -5.359375 C 6.640625 -5.828125 6.398438 -6.3125 6.109375 -6.8125 C 5.816406 -7.320312 5.507812 -7.804688 5.1875 -8.265625 C 4.875 -8.734375 4.601562 -9.140625 4.375 -9.484375 L 6.953125 -11.203125 C 7.890625 -9.941406 8.628906 -8.722656 9.171875 -7.546875 C 9.710938 -6.367188 10.070312 -5.410156 10.25 -4.671875 C 10.40625 -3.984375 10.707031 -3.519531 11.15625 -3.28125 C 11.601562 -3.039062 12.070312 -2.921875 12.5625 -2.921875 C 13.113281 -2.921875 13.503906 -2.78125 13.734375 -2.5 C 13.972656 -2.21875 14.09375 -1.867188 14.09375 -1.453125 C 14.09375 -1.003906 13.941406 -0.628906 13.640625 -0.328125 C 13.347656 -0.0351562 12.914062 0.109375 12.34375 0.109375 C 10.988281 0.109375 9.976562 -0.304688 9.3125 -1.140625 C 8.925781 -0.765625 8.378906 -0.457031 7.671875 -0.21875 C 6.960938 0.0078125 6.125 0.125 5.15625 0.125 C 4.488281 0.125 3.742188 0.046875 2.921875 -0.109375 C 2.097656 -0.265625 1.378906 -0.515625 0.765625 -0.859375 L 1.8125 -3.609375 C 2.351562 -3.367188 2.867188 -3.191406 3.359375 -3.078125 C 3.859375 -2.972656 4.3125 -2.921875 4.71875 -2.921875 Z M 4.71875 -2.921875 "/></g></g></g><g fill="#ffffff" fill-opacity="1"><g transform="translate(67.960579, 18.115143)"><g><path d="M 0 0.109375 L 0.21875 -2.921875 C 1.15625 -2.921875 1.8125 -3.023438 2.1875 -3.234375 C 2.5625 -3.441406 2.75 -3.882812 2.75 -4.5625 C 2.75 -4.96875 2.691406 -5.453125 2.578125 -6.015625 C 2.472656 -6.578125 2.332031 -7.15625 2.15625 -7.75 C 1.988281 -8.351562 1.816406 -8.914062 1.640625 -9.4375 L 4.640625 -10.265625 C 4.804688 -9.773438 4.976562 -9.203125 5.15625 -8.546875 C 5.332031 -7.898438 5.476562 -7.226562 5.59375 -6.53125 C 5.71875 -5.84375 5.78125 -5.1875 5.78125 -4.5625 C 5.78125 -3.582031 5.628906 -2.785156 5.328125 -2.171875 C 5.023438 -1.554688 4.601562 -1.082031 4.0625 -0.75 C 3.519531 -0.425781 2.898438 -0.203125 2.203125 -0.078125 C 1.515625 0.046875 0.78125 0.109375 0 0.109375 Z M 2.65625 5.09375 C 2.238281 5.09375 1.878906 4.945312 1.578125 4.65625 C 1.285156 4.363281 1.140625 4.007812 1.140625 3.59375 C 1.140625 3.175781 1.285156 2.8125 1.578125 2.5 C 1.878906 2.195312 2.238281 2.046875 2.65625 2.046875 C 3.0625 2.046875 3.414062 2.195312 3.71875 2.5 C 4.019531 2.8125 4.171875 3.175781 4.171875 3.59375 C 4.171875 4.007812 4.019531 4.363281 3.71875 4.65625 C 3.414062 4.945312 3.0625 5.09375 2.65625 5.09375 Z M 2.65625 5.09375 "/></g></g></g><g fill="#ffffff" fill-opacity="1"><g transform="translate(74.822517, 18.115143)"><g><path d="M 1.734375 0 L 1.28125 -15.859375 L 4.3125 -15.859375 L 4.765625 0 Z M 1.609375 6.6875 L 1.234375 5.171875 C 1.703125 5.085938 2.070312 5.015625 2.34375 4.953125 C 2.082031 4.765625 1.859375 4.519531 1.671875 4.21875 C 1.484375 3.914062 1.390625 3.582031 1.390625 3.21875 C 1.390625 2.707031 1.503906 2.289062 1.734375 1.96875 C 1.960938 1.65625 2.257812 1.425781 2.625 1.28125 C 2.988281 1.132812 3.363281 1.0625 3.75 1.0625 C 4.164062 1.0625 4.550781 1.117188 4.90625 1.234375 L 4.734375 2.796875 C 4.585938 2.765625 4.441406 2.734375 4.296875 2.703125 C 4.148438 2.671875 3.988281 2.65625 3.8125 2.65625 C 3.613281 2.65625 3.441406 2.71875 3.296875 2.84375 C 3.148438 2.96875 3.078125 3.117188 3.078125 3.296875 C 3.078125 3.578125 3.195312 3.820312 3.4375 4.03125 C 3.675781 4.25 3.921875 4.398438 4.171875 4.484375 C 4.628906 4.347656 5.050781 4.203125 5.4375 4.046875 L 5.875 5.5 C 5.320312 5.695312 4.648438 5.90625 3.859375 6.125 C 3.078125 6.351562 2.328125 6.539062 1.609375 6.6875 Z M 1.609375 6.6875 "/></g></g></g></svg>