<svg xmlns="http://www.w3.org/2000/svg" xmlns:xlink="http://www.w3.org/1999/xlink" width="130" zoomAndPan="magnify" viewBox="0 0 97.5 30.000001" height="40" preserveAspectRatio="xMidYMid meet" version="1.0"><defs><g/></defs><g fill="#ffffff" fill-opacity="1"><g transform="translate(7.68438, 21.521093)"><g><path d="M 0.6875 -7.671875 C 0.6875 -9.171875 1 -10.507812 1.625 -11.6875 C 2.257812 -12.863281 3.15625 -13.78125 4.3125 -14.4375 C 5.46875 -15.09375 6.796875 -15.421875 8.296875 -15.421875 C 10.203125 -15.421875 11.800781 -14.910156 13.09375 -13.890625 C 14.394531 -12.867188 15.234375 -11.488281 15.609375 -9.75 L 11.046875 -9.75 C 10.773438 -10.320312 10.394531 -10.757812 9.90625 -11.0625 C 9.425781 -11.363281 8.867188 -11.515625 8.234375 -11.515625 C 7.242188 -11.515625 6.457031 -11.164062 5.875 -10.46875 C 5.289062 -9.769531 5 -8.835938 5 -7.671875 C 5 -6.484375 5.289062 -5.539062 5.875 -4.84375 C 6.457031 -4.144531 7.242188 -3.796875 8.234375 -3.796875 C 8.867188 -3.796875 9.425781 -3.945312 9.90625 -4.25 C 10.394531 -4.550781 10.773438 -4.988281 11.046875 -5.5625 L 15.609375 -5.5625 C 15.234375 -3.8125 14.394531 -2.425781 13.09375 -1.40625 C 11.800781 -0.394531 10.203125 0.109375 8.296875 0.109375 C 6.796875 0.109375 5.46875 -0.21875 4.3125 -0.875 C 3.15625 -1.53125 2.257812 -2.445312 1.625 -3.625 C 1 -4.800781 0.6875 -6.148438 0.6875 -7.671875 Z M 0.6875 -7.671875 "/></g></g></g><g fill="#ffffff" fill-opacity="1"><g transform="translate(24.092425, 21.521093)"><g><path d="M 5.453125 -10 C 5.929688 -10.695312 6.507812 -11.242188 7.1875 -11.640625 C 7.863281 -12.046875 8.59375 -12.25 9.375 -12.25 L 9.375 -7.734375 L 8.1875 -7.734375 C 7.257812 -7.734375 6.570312 -7.550781 6.125 -7.1875 C 5.675781 -6.832031 5.453125 -6.207031 5.453125 -5.3125 L 5.453125 0 L 1.21875 0 L 1.21875 -12.15625 L 5.453125 -12.15625 Z M 5.453125 -10 "/></g></g></g><g fill="#ffffff" fill-opacity="1"><g transform="translate(33.768407, 21.521093)"><g><path d="M 12.828125 -6.21875 C 12.828125 -5.882812 12.800781 -5.550781 12.75 -5.21875 L 4.71875 -5.21875 C 4.757812 -4.550781 4.941406 -4.054688 5.265625 -3.734375 C 5.597656 -3.410156 6.015625 -3.25 6.515625 -3.25 C 7.222656 -3.25 7.726562 -3.566406 8.03125 -4.203125 L 12.5625 -4.203125 C 12.375 -3.359375 12.007812 -2.609375 11.46875 -1.953125 C 10.925781 -1.296875 10.242188 -0.78125 9.421875 -0.40625 C 8.597656 -0.03125 7.6875 0.15625 6.6875 0.15625 C 5.488281 0.15625 4.421875 -0.09375 3.484375 -0.59375 C 2.554688 -1.101562 1.828125 -1.828125 1.296875 -2.765625 C 0.773438 -3.703125 0.515625 -4.804688 0.515625 -6.078125 C 0.515625 -7.347656 0.773438 -8.445312 1.296875 -9.375 C 1.816406 -10.3125 2.539062 -11.03125 3.46875 -11.53125 C 4.40625 -12.039062 5.476562 -12.296875 6.6875 -12.296875 C 7.882812 -12.296875 8.945312 -12.050781 9.875 -11.5625 C 10.800781 -11.070312 11.523438 -10.367188 12.046875 -9.453125 C 12.566406 -8.535156 12.828125 -7.457031 12.828125 -6.21875 Z M 8.484375 -7.28125 C 8.484375 -7.800781 8.3125 -8.207031 7.96875 -8.5 C 7.625 -8.789062 7.191406 -8.9375 6.671875 -8.9375 C 6.148438 -8.9375 5.722656 -8.796875 5.390625 -8.515625 C 5.054688 -8.234375 4.84375 -7.820312 4.75 -7.28125 Z M 9.3125 -15.203125 L 3.90625 -13.078125 L 3.90625 -15.96875 L 9.3125 -18.40625 Z M 9.3125 -15.203125 "/></g></g></g><g fill="#ffffff" fill-opacity="1"><g transform="translate(47.102651, 21.521093)"><g><path d="M 0.515625 -6.078125 C 0.515625 -7.335938 0.742188 -8.4375 1.203125 -9.375 C 1.660156 -10.3125 2.28125 -11.03125 3.0625 -11.53125 C 3.851562 -12.039062 4.734375 -12.296875 5.703125 -12.296875 C 6.535156 -12.296875 7.253906 -12.128906 7.859375 -11.796875 C 8.460938 -11.460938 8.929688 -11.015625 9.265625 -10.453125 L 9.265625 -12.15625 L 13.515625 -12.15625 L 13.515625 0 L 9.265625 0 L 9.265625 -1.6875 C 8.929688 -1.125 8.457031 -0.675781 7.84375 -0.34375 C 7.238281 -0.0078125 6.523438 0.15625 5.703125 0.15625 C 4.734375 0.15625 3.851562 -0.09375 3.0625 -0.59375 C 2.28125 -1.101562 1.660156 -1.832031 1.203125 -2.78125 C 0.742188 -3.726562 0.515625 -4.828125 0.515625 -6.078125 Z M 9.265625 -6.078125 C 9.265625 -6.859375 9.050781 -7.472656 8.625 -7.921875 C 8.195312 -8.367188 7.675781 -8.59375 7.0625 -8.59375 C 6.425781 -8.59375 5.894531 -8.375 5.46875 -7.9375 C 5.050781 -7.5 4.84375 -6.878906 4.84375 -6.078125 C 4.84375 -5.304688 5.050781 -4.691406 5.46875 -4.234375 C 5.894531 -3.773438 6.425781 -3.546875 7.0625 -3.546875 C 7.675781 -3.546875 8.195312 -3.769531 8.625 -4.21875 C 9.050781 -4.664062 9.265625 -5.285156 9.265625 -6.078125 Z M 9.265625 -6.078125 "/></g></g></g><g fill="#ffffff" fill-opacity="1"><g transform="translate(61.822271, 21.521093)"><g><path d="M 8.375 -3.609375 L 8.375 0 L 6.546875 0 C 3.441406 0 1.890625 -1.535156 1.890625 -4.609375 L 1.890625 -8.625 L 0.390625 -8.625 L 0.390625 -12.15625 L 1.890625 -12.15625 L 1.890625 -15.09375 L 6.15625 -15.09375 L 6.15625 -12.15625 L 8.359375 -12.15625 L 8.359375 -8.625 L 6.15625 -8.625 L 6.15625 -4.546875 C 6.15625 -4.210938 6.226562 -3.972656 6.375 -3.828125 C 6.53125 -3.679688 6.785156 -3.609375 7.140625 -3.609375 Z M 8.375 -3.609375 "/></g></g></g><g fill="#ffffff" fill-opacity="1"><g transform="translate(70.935444, 21.521093)"><g><path d="M 3.359375 -13.28125 C 2.609375 -13.28125 2.003906 -13.484375 1.546875 -13.890625 C 1.085938 -14.304688 0.859375 -14.820312 0.859375 -15.4375 C 0.859375 -16.070312 1.085938 -16.597656 1.546875 -17.015625 C 2.003906 -17.441406 2.609375 -17.65625 3.359375 -17.65625 C 4.097656 -17.65625 4.691406 -17.441406 5.140625 -17.015625 C 5.597656 -16.597656 5.828125 -16.070312 5.828125 -15.4375 C 5.828125 -14.820312 5.597656 -14.304688 5.140625 -13.890625 C 4.691406 -13.484375 4.097656 -13.28125 3.359375 -13.28125 Z M 5.453125 -12.15625 L 5.453125 0 L 1.21875 0 L 1.21875 -12.15625 Z M 5.453125 -12.15625 "/></g></g></g><g fill="#ffffff" fill-opacity="1"><g transform="translate(77.602566, 21.521093)"><g><path d="M 7.78125 -8.625 L 5.875 -8.625 L 5.875 0 L 1.609375 0 L 1.609375 -8.625 L 0.28125 -8.625 L 0.28125 -12.15625 L 1.609375 -12.15625 L 1.609375 -12.25 C 1.609375 -13.8125 2.066406 -15.007812 2.984375 -15.84375 C 3.898438 -16.675781 5.21875 -17.09375 6.9375 -17.09375 C 7.28125 -17.09375 7.546875 -17.082031 7.734375 -17.0625 L 7.734375 -13.453125 C 7.617188 -13.460938 7.457031 -13.46875 7.25 -13.46875 C 6.789062 -13.46875 6.453125 -13.363281 6.234375 -13.15625 C 6.015625 -12.945312 5.894531 -12.613281 5.875 -12.15625 L 7.78125 -12.15625 Z M 7.78125 -8.625 "/></g></g></g><g fill="#ffffff" fill-opacity="1"><g transform="translate(85.675535, 21.521093)"><g/></g></g></svg>