<svg xmlns="http://www.w3.org/2000/svg" xmlns:xlink="http://www.w3.org/1999/xlink" width="130" zoomAndPan="magnify" viewBox="0 0 97.5 30.000001" height="40" preserveAspectRatio="xMidYMid meet" version="1.0"><defs><g/></defs><g fill="#ffffff" fill-opacity="1"><g transform="translate(3.028058, 20.810053)"><g><path d="M 0.640625 -7.140625 C 0.640625 -8.535156 0.929688 -9.78125 1.515625 -10.875 C 2.109375 -11.96875 2.941406 -12.816406 4.015625 -13.421875 C 5.085938 -14.035156 6.320312 -14.34375 7.71875 -14.34375 C 9.488281 -14.34375 10.976562 -13.867188 12.1875 -12.921875 C 13.40625 -11.984375 14.1875 -10.695312 14.53125 -9.0625 L 10.28125 -9.0625 C 10.019531 -9.601562 9.664062 -10.015625 9.21875 -10.296875 C 8.769531 -10.578125 8.25 -10.71875 7.65625 -10.71875 C 6.738281 -10.71875 6.007812 -10.390625 5.46875 -9.734375 C 4.925781 -9.085938 4.65625 -8.222656 4.65625 -7.140625 C 4.65625 -6.035156 4.925781 -5.15625 5.46875 -4.5 C 6.007812 -3.851562 6.738281 -3.53125 7.65625 -3.53125 C 8.25 -3.53125 8.769531 -3.671875 9.21875 -3.953125 C 9.664062 -4.234375 10.019531 -4.644531 10.28125 -5.1875 L 14.53125 -5.1875 C 14.1875 -3.550781 13.40625 -2.257812 12.1875 -1.3125 C 10.976562 -0.375 9.488281 0.09375 7.71875 0.09375 C 6.320312 0.09375 5.085938 -0.207031 4.015625 -0.8125 C 2.941406 -1.425781 2.109375 -2.28125 1.515625 -3.375 C 0.929688 -4.46875 0.640625 -5.722656 0.640625 -7.140625 Z M 0.640625 -7.140625 "/></g></g></g><g fill="#ffffff" fill-opacity="1"><g transform="translate(18.298878, 20.810053)"><g><path d="M 5.078125 -9.3125 C 5.523438 -9.957031 6.0625 -10.46875 6.6875 -10.84375 C 7.320312 -11.21875 8.003906 -11.40625 8.734375 -11.40625 L 8.734375 -7.203125 L 7.625 -7.203125 C 6.757812 -7.203125 6.117188 -7.03125 5.703125 -6.6875 C 5.285156 -6.351562 5.078125 -5.769531 5.078125 -4.9375 L 5.078125 0 L 1.125 0 L 1.125 -11.3125 L 5.078125 -11.3125 Z M 5.078125 -9.3125 "/></g></g></g><g fill="#ffffff" fill-opacity="1"><g transform="translate(27.304227, 20.810053)"><g><path d="M 11.9375 -5.78125 C 11.9375 -5.476562 11.914062 -5.171875 11.875 -4.859375 L 4.390625 -4.859375 C 4.429688 -4.242188 4.601562 -3.78125 4.90625 -3.46875 C 5.207031 -3.164062 5.59375 -3.015625 6.0625 -3.015625 C 6.71875 -3.015625 7.191406 -3.3125 7.484375 -3.90625 L 11.6875 -3.90625 C 11.507812 -3.125 11.171875 -2.425781 10.671875 -1.8125 C 10.171875 -1.207031 9.535156 -0.726562 8.765625 -0.375 C 8.003906 -0.03125 7.160156 0.140625 6.234375 0.140625 C 5.117188 0.140625 4.125 -0.09375 3.25 -0.5625 C 2.382812 -1.03125 1.707031 -1.703125 1.21875 -2.578125 C 0.726562 -3.453125 0.484375 -4.476562 0.484375 -5.65625 C 0.484375 -6.84375 0.722656 -7.867188 1.203125 -8.734375 C 1.691406 -9.597656 2.367188 -10.265625 3.234375 -10.734375 C 4.097656 -11.210938 5.097656 -11.453125 6.234375 -11.453125 C 7.347656 -11.453125 8.332031 -11.222656 9.1875 -10.765625 C 10.050781 -10.304688 10.722656 -9.648438 11.203125 -8.796875 C 11.691406 -7.941406 11.9375 -6.9375 11.9375 -5.78125 Z M 7.90625 -6.765625 C 7.90625 -7.253906 7.742188 -7.632812 7.421875 -7.90625 C 7.097656 -8.1875 6.691406 -8.328125 6.203125 -8.328125 C 5.722656 -8.328125 5.328125 -8.191406 5.015625 -7.921875 C 4.710938 -7.660156 4.515625 -7.273438 4.421875 -6.765625 Z M 7.90625 -6.765625 "/></g></g></g><g fill="#ffffff" fill-opacity="1"><g transform="translate(39.714287, 20.810053)"><g><path d="M 0.484375 -5.65625 C 0.484375 -6.832031 0.691406 -7.851562 1.109375 -8.71875 C 1.535156 -9.59375 2.113281 -10.265625 2.84375 -10.734375 C 3.582031 -11.210938 4.398438 -11.453125 5.296875 -11.453125 C 6.078125 -11.453125 6.75 -11.296875 7.3125 -10.984375 C 7.875 -10.671875 8.3125 -10.253906 8.625 -9.734375 L 8.625 -11.3125 L 12.578125 -11.3125 L 12.578125 0 L 8.625 0 L 8.625 -1.578125 C 8.3125 -1.046875 7.867188 -0.625 7.296875 -0.3125 C 6.734375 -0.0078125 6.066406 0.140625 5.296875 0.140625 C 4.398438 0.140625 3.582031 -0.09375 2.84375 -0.5625 C 2.113281 -1.03125 1.535156 -1.703125 1.109375 -2.578125 C 0.691406 -3.460938 0.484375 -4.488281 0.484375 -5.65625 Z M 8.625 -5.65625 C 8.625 -6.382812 8.425781 -6.957031 8.03125 -7.375 C 7.632812 -7.789062 7.148438 -8 6.578125 -8 C 5.984375 -8 5.488281 -7.789062 5.09375 -7.375 C 4.707031 -6.96875 4.515625 -6.394531 4.515625 -5.65625 C 4.515625 -4.9375 4.707031 -4.363281 5.09375 -3.9375 C 5.488281 -3.519531 5.984375 -3.3125 6.578125 -3.3125 C 7.148438 -3.3125 7.632812 -3.519531 8.03125 -3.9375 C 8.425781 -4.351562 8.625 -4.925781 8.625 -5.65625 Z M 8.625 -5.65625 "/></g></g></g><g fill="#ffffff" fill-opacity="1"><g transform="translate(53.413705, 20.810053)"><g><path d="M 7.796875 -3.359375 L 7.796875 0 L 6.09375 0 C 3.195312 0 1.75 -1.429688 1.75 -4.296875 L 1.75 -8.015625 L 0.359375 -8.015625 L 0.359375 -11.3125 L 1.75 -11.3125 L 1.75 -14.046875 L 5.71875 -14.046875 L 5.71875 -11.3125 L 7.78125 -11.3125 L 7.78125 -8.015625 L 5.71875 -8.015625 L 5.71875 -4.234375 C 5.71875 -3.921875 5.785156 -3.695312 5.921875 -3.5625 C 6.066406 -3.425781 6.3125 -3.359375 6.65625 -3.359375 Z M 7.796875 -3.359375 "/></g></g></g><g fill="#ffffff" fill-opacity="1"><g transform="translate(61.895252, 20.810053)"><g><path d="M 3.125 -12.359375 C 2.425781 -12.359375 1.863281 -12.546875 1.4375 -12.921875 C 1.019531 -13.304688 0.8125 -13.789062 0.8125 -14.375 C 0.8125 -14.96875 1.019531 -15.457031 1.4375 -15.84375 C 1.863281 -16.226562 2.425781 -16.421875 3.125 -16.421875 C 3.8125 -16.421875 4.363281 -16.226562 4.78125 -15.84375 C 5.207031 -15.457031 5.421875 -14.96875 5.421875 -14.375 C 5.421875 -13.789062 5.207031 -13.304688 4.78125 -12.921875 C 4.363281 -12.546875 3.8125 -12.359375 3.125 -12.359375 Z M 5.078125 -11.3125 L 5.078125 0 L 1.125 0 L 1.125 -11.3125 Z M 5.078125 -11.3125 "/></g></g></g><g fill="#ffffff" fill-opacity="1"><g transform="translate(68.100283, 20.810053)"><g><path d="M 6.546875 -3.734375 L 8.671875 -11.3125 L 12.875 -11.3125 L 8.984375 0 L 4.078125 0 L 0.1875 -11.3125 L 4.390625 -11.3125 Z M 6.546875 -3.734375 "/></g></g></g><g fill="#ffffff" fill-opacity="1"><g transform="translate(81.175167, 20.810053)"><g><path d="M 11.9375 -5.78125 C 11.9375 -5.476562 11.914062 -5.171875 11.875 -4.859375 L 4.390625 -4.859375 C 4.429688 -4.242188 4.601562 -3.78125 4.90625 -3.46875 C 5.207031 -3.164062 5.59375 -3.015625 6.0625 -3.015625 C 6.71875 -3.015625 7.191406 -3.3125 7.484375 -3.90625 L 11.6875 -3.90625 C 11.507812 -3.125 11.171875 -2.425781 10.671875 -1.8125 C 10.171875 -1.207031 9.535156 -0.726562 8.765625 -0.375 C 8.003906 -0.03125 7.160156 0.140625 6.234375 0.140625 C 5.117188 0.140625 4.125 -0.09375 3.25 -0.5625 C 2.382812 -1.03125 1.707031 -1.703125 1.21875 -2.578125 C 0.726562 -3.453125 0.484375 -4.476562 0.484375 -5.65625 C 0.484375 -6.84375 0.722656 -7.867188 1.203125 -8.734375 C 1.691406 -9.597656 2.367188 -10.265625 3.234375 -10.734375 C 4.097656 -11.210938 5.097656 -11.453125 6.234375 -11.453125 C 7.347656 -11.453125 8.332031 -11.222656 9.1875 -10.765625 C 10.050781 -10.304688 10.722656 -9.648438 11.203125 -8.796875 C 11.691406 -7.941406 11.9375 -6.9375 11.9375 -5.78125 Z M 7.90625 -6.765625 C 7.90625 -7.253906 7.742188 -7.632812 7.421875 -7.90625 C 7.097656 -8.1875 6.691406 -8.328125 6.203125 -8.328125 C 5.722656 -8.328125 5.328125 -8.191406 5.015625 -7.921875 C 4.710938 -7.660156 4.515625 -7.273438 4.421875 -6.765625 Z M 7.90625 -6.765625 "/></g></g></g></svg>