<svg xmlns="http://www.w3.org/2000/svg" xmlns:xlink="http://www.w3.org/1999/xlink" width="130" zoomAndPan="magnify" viewBox="0 0 97.5 30.000001" height="40" preserveAspectRatio="xMidYMid meet" version="1.0"><defs><g/></defs><g fill="#ffffff" fill-opacity="1"><g transform="translate(4.613522, 20.867883)"><g/></g></g><g fill="#ffffff" fill-opacity="1"><g transform="translate(8.033187, 20.867883)"><g><path d="M 3.707031 -9.773438 C 4.855469 -10.878906 5.882812 -12.171875 6.730469 -13.5625 C 7.816406 -12.332031 8.964844 -10.921875 9.773438 -9.773438 Z M 10.597656 -9.046875 L 12.128906 -10.496094 C 11.242188 -11.847656 9.371094 -13.921875 7.816406 -15.554688 C 7.9375 -15.835938 8.078125 -16.140625 8.199219 -16.421875 L 6.003906 -17.085938 C 4.957031 -14.546875 2.839844 -11.847656 0.402344 -10.195312 C 0.925781 -9.792969 1.734375 -8.925781 2.117188 -8.421875 C 2.316406 -8.582031 2.539062 -8.746094 2.742188 -8.90625 L 2.742188 -1.550781 C 2.742188 0.765625 3.484375 1.410156 5.84375 1.410156 L 9.066406 1.410156 C 11.121094 1.410156 11.746094 0.5625 12.007812 -2.277344 C 11.382812 -2.398438 10.4375 -2.761719 9.933594 -3.144531 C 9.8125 -1.027344 9.671875 -0.625 8.867188 -0.625 L 6.125 -0.625 C 5.21875 -0.625 5.058594 -0.746094 5.058594 -1.570312 L 5.058594 -7.71875 L 8.261719 -7.71875 C 8.140625 -5.984375 8 -5.238281 7.816406 -5.015625 C 7.675781 -4.835938 7.515625 -4.796875 7.253906 -4.796875 C 6.953125 -4.796875 6.347656 -4.796875 5.703125 -4.875 C 6.003906 -4.332031 6.246094 -3.484375 6.265625 -2.859375 C 7.152344 -2.839844 7.9375 -2.859375 8.421875 -2.921875 C 8.964844 -3.003906 9.410156 -3.164062 9.773438 -3.605469 C 10.234375 -4.152344 10.4375 -5.621094 10.597656 -8.964844 Z M 14.710938 -14.769531 L 12.414062 -14.769531 L 12.414062 -3.386719 L 14.710938 -3.386719 Z M 16.261719 -16.683594 L 16.261719 -1.066406 C 16.261719 -0.683594 16.097656 -0.5625 15.714844 -0.542969 C 15.3125 -0.542969 13.964844 -0.542969 12.695312 -0.605469 C 13.035156 0.0390625 13.398438 1.046875 13.5 1.710938 C 15.394531 1.710938 16.683594 1.652344 17.511719 1.269531 C 18.355469 0.90625 18.636719 0.300781 18.636719 -1.066406 L 18.636719 -16.683594 Z M 16.261719 -16.683594 "/></g></g></g><g fill="#ffffff" fill-opacity="1"><g transform="translate(28.17499, 20.867883)"><g><path d="M 11.644531 -12.753906 L 11.644531 -11.0625 L 6.265625 -11.0625 L 6.265625 -9.046875 L 19.222656 -9.046875 L 19.222656 -11.0625 L 14.023438 -11.0625 L 14.023438 -12.753906 L 18.398438 -12.753906 L 18.398438 -14.789062 L 14.023438 -14.789062 L 14.023438 -17.046875 L 11.644531 -17.046875 L 11.644531 -14.789062 L 10.054688 -14.789062 C 10.234375 -15.3125 10.417969 -15.816406 10.558594 -16.363281 L 8.34375 -16.863281 C 7.878906 -15.113281 7.050781 -13.320312 6.003906 -12.171875 C 6.570312 -11.929688 7.554688 -11.40625 8.019531 -11.0625 C 8.402344 -11.546875 8.785156 -12.109375 9.109375 -12.753906 Z M 9.933594 -5.925781 L 15.433594 -5.925781 L 15.433594 -3.910156 L 9.933594 -3.910156 Z M 17.8125 -1.996094 L 17.8125 -7.839844 L 7.695312 -7.839844 L 7.695312 -1.996094 Z M 5.863281 -13.257812 C 5.238281 -14.183594 3.867188 -15.496094 2.761719 -16.382812 L 0.988281 -15.113281 C 2.09375 -14.105469 3.40625 -12.734375 3.96875 -11.808594 Z M 5.480469 -9.328125 L 0.90625 -9.328125 L 0.90625 -7.113281 L 3.183594 -7.113281 L 3.183594 -2.035156 C 2.398438 -1.652344 1.550781 -1.066406 0.785156 -0.34375 L 2.214844 1.753906 C 3.101562 0.625 4.070312 -0.464844 4.675781 -0.464844 C 5.058594 -0.464844 5.660156 0.0585938 6.40625 0.484375 C 7.675781 1.230469 9.269531 1.429688 11.707031 1.429688 C 13.882812 1.429688 17.289062 1.328125 19.082031 1.207031 C 19.101562 0.585938 19.484375 -0.523438 19.726562 -1.148438 C 17.550781 -0.824219 13.964844 -0.664062 11.789062 -0.664062 C 9.652344 -0.664062 7.878906 -0.746094 6.648438 -1.472656 C 6.144531 -1.773438 5.78125 -2.054688 5.480469 -2.238281 Z M 5.480469 -9.328125 "/></g></g></g><g fill="#ffffff" fill-opacity="1"><g transform="translate(48.316793, 20.867883)"><g><path d="M 14.628906 -1.167969 L 14.628906 -5.199219 L 18.316406 -5.199219 L 18.316406 -7.433594 L 14.628906 -7.433594 L 14.628906 -10.738281 L 18.738281 -10.738281 L 18.738281 -12.996094 L 14.628906 -12.996094 L 14.628906 -16.945312 L 12.230469 -16.945312 L 12.230469 -12.996094 L 10.617188 -12.996094 C 10.820312 -13.902344 10.980469 -14.851562 11.121094 -15.796875 L 8.785156 -16.121094 C 8.582031 -14.40625 8.222656 -12.675781 7.71875 -11.203125 C 7.433594 -11.988281 7.011719 -12.957031 6.609375 -13.742188 L 5.441406 -13.257812 L 5.441406 -17.066406 L 3.042969 -17.066406 L 3.042969 -12.957031 L 1.351562 -13.199219 C 1.207031 -11.546875 0.847656 -9.289062 0.363281 -7.960938 L 2.136719 -7.3125 C 2.597656 -8.746094 2.921875 -10.960938 3.042969 -12.652344 L 3.042969 1.753906 L 5.441406 1.753906 L 5.441406 -12.007812 C 5.78125 -11.183594 6.085938 -10.296875 6.207031 -9.691406 L 7.355469 -10.214844 C 7.152344 -9.792969 6.953125 -9.410156 6.75 -9.046875 C 7.3125 -8.804688 8.402344 -8.261719 8.886719 -7.960938 C 9.308594 -8.726562 9.710938 -9.691406 10.015625 -10.738281 L 12.230469 -10.738281 L 12.230469 -7.433594 L 8.34375 -7.433594 L 8.34375 -5.199219 L 12.230469 -5.199219 L 12.230469 -1.167969 L 6.851562 -1.167969 L 6.851562 1.109375 L 19.382812 1.109375 L 19.382812 -1.167969 Z M 14.628906 -1.167969 "/></g></g></g><g fill="#ffffff" fill-opacity="1"><g transform="translate(68.458596, 20.867883)"><g><path d="M 3.707031 -2.4375 L 3.707031 -6.386719 L 6.910156 -6.386719 L 6.910156 -2.4375 Z M 6.910156 -8.460938 L 3.707031 -8.460938 L 3.707031 -11.726562 L 6.910156 -11.726562 Z M 13.296875 -13.964844 C 13.601562 -14.808594 13.882812 -15.65625 14.085938 -16.523438 L 11.808594 -17.046875 C 11.222656 -14.6875 10.257812 -12.25 9.085938 -10.558594 L 9.085938 -13.824219 L 5.964844 -13.824219 C 6.308594 -14.6875 6.667969 -15.695312 7.011719 -16.703125 L 4.394531 -17.066406 C 4.3125 -16.121094 4.070312 -14.832031 3.808594 -13.824219 L 1.53125 -13.824219 L 1.53125 1.148438 L 3.707031 1.148438 L 3.707031 -0.324219 L 9.085938 -0.324219 L 9.085938 -9.730469 C 9.632812 -9.371094 10.316406 -8.90625 10.640625 -8.605469 C 11.261719 -9.46875 11.886719 -10.578125 12.414062 -11.789062 L 16.722656 -11.789062 C 16.503906 -4.675781 16.242188 -1.652344 15.65625 -1.007812 C 15.394531 -0.746094 15.171875 -0.664062 14.769531 -0.664062 C 14.246094 -0.664062 13.058594 -0.664062 11.765625 -0.785156 C 12.191406 -0.121094 12.511719 0.886719 12.554688 1.550781 C 13.742188 1.59375 14.949219 1.613281 15.714844 1.511719 C 16.523438 1.371094 17.085938 1.148438 17.652344 0.402344 C 18.476562 -0.664062 18.699219 -3.867188 18.960938 -12.875 C 18.980469 -13.15625 18.980469 -13.964844 18.980469 -13.964844 Z M 15.636719 -4.777344 C 15.011719 -5.945312 13.679688 -7.859375 12.675781 -9.25 L 10.800781 -8.179688 C 11.789062 -6.710938 13.035156 -4.734375 13.601562 -3.527344 Z M 15.636719 -4.777344 "/></g></g></g><g fill="#ffffff" fill-opacity="1"><g transform="translate(88.589091, 20.867883)"><g/></g></g></svg>