<svg xmlns="http://www.w3.org/2000/svg" xmlns:xlink="http://www.w3.org/1999/xlink" width="130" zoomAndPan="magnify" viewBox="0 0 97.5 30.000001" height="40" preserveAspectRatio="xMidYMid meet" version="1.0"><defs><g/></defs><g fill="#ffffff" fill-opacity="1"><g transform="translate(8.557535, 20.867882)"><g><path d="M 9.640625 0 L 5.484375 -6.1875 L 5.484375 0 L 1 0 L 1 -14.265625 L 5.484375 -14.265625 L 5.484375 -8.265625 L 9.578125 -14.265625 L 14.640625 -14.265625 L 9.71875 -7.4375 L 14.953125 0 Z M 9.640625 0 "/></g></g></g><g fill="#ffffff" fill-opacity="1"><g transform="translate(23.764602, 20.867882)"><g><path d="M 5.484375 -9.265625 C 5.941406 -9.929688 6.5 -10.460938 7.15625 -10.859375 C 7.8125 -11.253906 8.5 -11.453125 9.21875 -11.453125 L 9.21875 -6.671875 L 7.9375 -6.671875 C 7.09375 -6.671875 6.472656 -6.519531 6.078125 -6.21875 C 5.679688 -5.925781 5.484375 -5.40625 5.484375 -4.65625 L 5.484375 0 L 1 0 L 1 -11.375 L 5.484375 -11.375 Z M 5.484375 -9.265625 "/></g></g></g><g fill="#ffffff" fill-opacity="1"><g transform="translate(33.170829, 20.867882)"><g><path d="M 12.015625 -5.78125 C 12.015625 -5.476562 11.992188 -5.179688 11.953125 -4.890625 L 4.75 -4.890625 C 4.820312 -3.910156 5.234375 -3.421875 5.984375 -3.421875 C 6.472656 -3.421875 6.820312 -3.644531 7.03125 -4.09375 L 11.765625 -4.09375 C 11.609375 -3.28125 11.269531 -2.554688 10.75 -1.921875 C 10.238281 -1.285156 9.585938 -0.78125 8.796875 -0.40625 C 8.015625 -0.0390625 7.148438 0.140625 6.203125 0.140625 C 5.078125 0.140625 4.070312 -0.09375 3.1875 -0.5625 C 2.3125 -1.03125 1.628906 -1.703125 1.140625 -2.578125 C 0.648438 -3.460938 0.40625 -4.5 0.40625 -5.6875 C 0.40625 -6.863281 0.648438 -7.890625 1.140625 -8.765625 C 1.628906 -9.648438 2.3125 -10.328125 3.1875 -10.796875 C 4.070312 -11.273438 5.078125 -11.515625 6.203125 -11.515625 C 7.335938 -11.515625 8.34375 -11.28125 9.21875 -10.8125 C 10.101562 -10.351562 10.789062 -9.691406 11.28125 -8.828125 C 11.769531 -7.960938 12.015625 -6.945312 12.015625 -5.78125 Z M 7.484375 -6.859375 C 7.484375 -7.234375 7.359375 -7.515625 7.109375 -7.703125 C 6.867188 -7.898438 6.566406 -8 6.203125 -8 C 5.410156 -8 4.945312 -7.617188 4.8125 -6.859375 Z M 7.484375 -6.859375 "/></g></g></g><g fill="#ffffff" fill-opacity="1"><g transform="translate(45.578179, 20.867882)"><g><path d="M 0.40625 -5.6875 C 0.40625 -6.882812 0.609375 -7.921875 1.015625 -8.796875 C 1.421875 -9.679688 1.976562 -10.351562 2.6875 -10.8125 C 3.40625 -11.28125 4.207031 -11.515625 5.09375 -11.515625 C 5.832031 -11.515625 6.472656 -11.363281 7.015625 -11.0625 C 7.554688 -10.757812 7.96875 -10.34375 8.25 -9.8125 L 8.25 -11.375 L 12.703125 -11.375 L 12.703125 0 L 8.25 0 L 8.25 -1.546875 C 7.96875 -1.023438 7.554688 -0.613281 7.015625 -0.3125 C 6.472656 -0.0078125 5.832031 0.140625 5.09375 0.140625 C 4.207031 0.140625 3.40625 -0.0859375 2.6875 -0.546875 C 1.976562 -1.015625 1.421875 -1.6875 1.015625 -2.5625 C 0.609375 -3.445312 0.40625 -4.488281 0.40625 -5.6875 Z M 8.25 -5.6875 C 8.25 -6.289062 8.09375 -6.757812 7.78125 -7.09375 C 7.46875 -7.425781 7.070312 -7.59375 6.59375 -7.59375 C 6.101562 -7.59375 5.703125 -7.425781 5.390625 -7.09375 C 5.085938 -6.757812 4.9375 -6.289062 4.9375 -5.6875 C 4.9375 -5.082031 5.085938 -4.609375 5.390625 -4.265625 C 5.703125 -3.929688 6.101562 -3.765625 6.59375 -3.765625 C 7.070312 -3.765625 7.46875 -3.929688 7.78125 -4.265625 C 8.09375 -4.609375 8.25 -5.082031 8.25 -5.6875 Z M 8.25 -5.6875 "/></g></g></g><g fill="#ffffff" fill-opacity="1"><g transform="translate(59.274604, 20.867882)"><g><path d="M 8.078125 -3.8125 L 8.078125 0 L 6.390625 0 C 3.273438 0 1.71875 -1.550781 1.71875 -4.65625 L 1.71875 -7.640625 L 0.296875 -7.640625 L 0.296875 -11.375 L 1.71875 -11.375 L 1.71875 -14.109375 L 6.1875 -14.109375 L 6.1875 -11.375 L 8.046875 -11.375 L 8.046875 -7.640625 L 6.1875 -7.640625 L 6.1875 -4.578125 C 6.1875 -4.304688 6.25 -4.109375 6.375 -3.984375 C 6.507812 -3.867188 6.722656 -3.8125 7.015625 -3.8125 Z M 8.078125 -3.8125 "/></g></g></g><g fill="#ffffff" fill-opacity="1"><g transform="translate(68.056431, 20.867882)"><g><path d="M 3.265625 -12.28125 C 2.484375 -12.28125 1.859375 -12.488281 1.390625 -12.90625 C 0.921875 -13.320312 0.6875 -13.84375 0.6875 -14.46875 C 0.6875 -15.113281 0.921875 -15.644531 1.390625 -16.0625 C 1.859375 -16.488281 2.484375 -16.703125 3.265625 -16.703125 C 4.035156 -16.703125 4.65625 -16.488281 5.125 -16.0625 C 5.59375 -15.644531 5.828125 -15.113281 5.828125 -14.46875 C 5.828125 -13.84375 5.59375 -13.320312 5.125 -12.90625 C 4.65625 -12.488281 4.035156 -12.28125 3.265625 -12.28125 Z M 5.484375 -11.375 L 5.484375 0 L 1 0 L 1 -11.375 Z M 5.484375 -11.375 "/></g></g></g><g fill="#ffffff" fill-opacity="1"><g transform="translate(74.542094, 20.867882)"><g><path d="M 6.765625 -4.25 L 8.59375 -11.375 L 13.34375 -11.375 L 9.546875 0 L 3.96875 0 L 0.1875 -11.375 L 4.9375 -11.375 Z M 6.765625 -4.25 "/></g></g></g></svg>