<svg xmlns="http://www.w3.org/2000/svg" xmlns:xlink="http://www.w3.org/1999/xlink" width="130" zoomAndPan="magnify" viewBox="0 0 97.5 30.000001" height="40" preserveAspectRatio="xMidYMid meet" version="1.0"><defs><g/><clipPath id="07fba87d79"><path d="M 84 8 L 95.683594 8 L 95.683594 21 L 84 21 Z M 84 8 " clip-rule="nonzero"/></clipPath></defs><g fill="#ffffff" fill-opacity="1"><g transform="translate(5.257887, 20.53554)"><g><path d="M 13.28125 -10.171875 C 13.28125 -9.253906 13.066406 -8.414062 12.640625 -7.65625 C 12.210938 -6.894531 11.566406 -6.285156 10.703125 -5.828125 C 9.847656 -5.378906 8.800781 -5.15625 7.5625 -5.15625 L 5.453125 -5.15625 L 5.453125 0 L 1.21875 0 L 1.21875 -15.265625 L 7.5625 -15.265625 C 8.789062 -15.265625 9.832031 -15.046875 10.6875 -14.609375 C 11.539062 -14.179688 12.1875 -13.582031 12.625 -12.8125 C 13.0625 -12.050781 13.28125 -11.171875 13.28125 -10.171875 Z M 7.140625 -8.53125 C 8.335938 -8.53125 8.9375 -9.078125 8.9375 -10.171875 C 8.9375 -11.285156 8.335938 -11.84375 7.140625 -11.84375 L 5.453125 -11.84375 L 5.453125 -8.53125 Z M 7.140625 -8.53125 "/></g></g></g><g fill="#ffffff" fill-opacity="1"><g transform="translate(19.025066, 20.53554)"><g><path d="M 6.859375 0.15625 C 5.648438 0.15625 4.566406 -0.09375 3.609375 -0.59375 C 2.648438 -1.101562 1.894531 -1.828125 1.34375 -2.765625 C 0.789062 -3.703125 0.515625 -4.804688 0.515625 -6.078125 C 0.515625 -7.335938 0.789062 -8.4375 1.34375 -9.375 C 1.90625 -10.3125 2.664062 -11.03125 3.625 -11.53125 C 4.582031 -12.039062 5.671875 -12.296875 6.890625 -12.296875 C 8.097656 -12.296875 9.179688 -12.039062 10.140625 -11.53125 C 11.109375 -11.03125 11.867188 -10.3125 12.421875 -9.375 C 12.972656 -8.4375 13.25 -7.335938 13.25 -6.078125 C 13.25 -4.828125 12.972656 -3.726562 12.421875 -2.78125 C 11.867188 -1.832031 11.109375 -1.101562 10.140625 -0.59375 C 9.171875 -0.09375 8.078125 0.15625 6.859375 0.15625 Z M 6.859375 -3.53125 C 7.453125 -3.53125 7.945312 -3.75 8.34375 -4.1875 C 8.738281 -4.625 8.9375 -5.253906 8.9375 -6.078125 C 8.9375 -6.898438 8.738281 -7.53125 8.34375 -7.96875 C 7.945312 -8.40625 7.460938 -8.625 6.890625 -8.625 C 6.304688 -8.625 5.816406 -8.40625 5.421875 -7.96875 C 5.035156 -7.53125 4.84375 -6.898438 4.84375 -6.078125 C 4.84375 -5.242188 5.03125 -4.609375 5.40625 -4.171875 C 5.789062 -3.742188 6.273438 -3.53125 6.859375 -3.53125 Z M 6.859375 -3.53125 "/></g></g></g><g fill="#ffffff" fill-opacity="1"><g transform="translate(32.792245, 20.53554)"><g><path d="M 5.453125 -10.453125 C 5.785156 -11.015625 6.253906 -11.460938 6.859375 -11.796875 C 7.472656 -12.128906 8.191406 -12.296875 9.015625 -12.296875 C 9.972656 -12.296875 10.847656 -12.039062 11.640625 -11.53125 C 12.429688 -11.03125 13.050781 -10.3125 13.5 -9.375 C 13.957031 -8.4375 14.1875 -7.335938 14.1875 -6.078125 C 14.1875 -4.828125 13.957031 -3.726562 13.5 -2.78125 C 13.050781 -1.832031 12.429688 -1.101562 11.640625 -0.59375 C 10.847656 -0.09375 9.972656 0.15625 9.015625 0.15625 C 8.191406 0.15625 7.476562 -0.0078125 6.875 -0.34375 C 6.28125 -0.675781 5.804688 -1.125 5.453125 -1.6875 L 5.453125 5.796875 L 1.21875 5.796875 L 1.21875 -12.15625 L 5.453125 -12.15625 Z M 9.875 -6.078125 C 9.875 -6.878906 9.660156 -7.5 9.234375 -7.9375 C 8.804688 -8.375 8.285156 -8.59375 7.671875 -8.59375 C 7.046875 -8.59375 6.519531 -8.367188 6.09375 -7.921875 C 5.664062 -7.472656 5.453125 -6.859375 5.453125 -6.078125 C 5.453125 -5.285156 5.664062 -4.664062 6.09375 -4.21875 C 6.519531 -3.769531 7.046875 -3.546875 7.671875 -3.546875 C 8.285156 -3.546875 8.804688 -3.773438 9.234375 -4.234375 C 9.660156 -4.691406 9.875 -5.304688 9.875 -6.078125 Z M 9.875 -6.078125 "/></g></g></g><g fill="#ffffff" fill-opacity="1"><g transform="translate(47.511865, 20.53554)"><g><path d="M 5.453125 -10.453125 C 5.785156 -11.015625 6.253906 -11.460938 6.859375 -11.796875 C 7.472656 -12.128906 8.191406 -12.296875 9.015625 -12.296875 C 9.972656 -12.296875 10.847656 -12.039062 11.640625 -11.53125 C 12.429688 -11.03125 13.050781 -10.3125 13.5 -9.375 C 13.957031 -8.4375 14.1875 -7.335938 14.1875 -6.078125 C 14.1875 -4.828125 13.957031 -3.726562 13.5 -2.78125 C 13.050781 -1.832031 12.429688 -1.101562 11.640625 -0.59375 C 10.847656 -0.09375 9.972656 0.15625 9.015625 0.15625 C 8.191406 0.15625 7.476562 -0.0078125 6.875 -0.34375 C 6.28125 -0.675781 5.804688 -1.125 5.453125 -1.6875 L 5.453125 5.796875 L 1.21875 5.796875 L 1.21875 -12.15625 L 5.453125 -12.15625 Z M 9.875 -6.078125 C 9.875 -6.878906 9.660156 -7.5 9.234375 -7.9375 C 8.804688 -8.375 8.285156 -8.59375 7.671875 -8.59375 C 7.046875 -8.59375 6.519531 -8.367188 6.09375 -7.921875 C 5.664062 -7.472656 5.453125 -6.859375 5.453125 -6.078125 C 5.453125 -5.285156 5.664062 -4.664062 6.09375 -4.21875 C 6.519531 -3.769531 7.046875 -3.546875 7.671875 -3.546875 C 8.285156 -3.546875 8.804688 -3.773438 9.234375 -4.234375 C 9.660156 -4.691406 9.875 -5.304688 9.875 -6.078125 Z M 9.875 -6.078125 "/></g></g></g><g fill="#ffffff" fill-opacity="1"><g transform="translate(62.231485, 20.53554)"><g><path d="M 3.359375 -13.28125 C 2.609375 -13.28125 2.003906 -13.484375 1.546875 -13.890625 C 1.085938 -14.304688 0.859375 -14.820312 0.859375 -15.4375 C 0.859375 -16.070312 1.085938 -16.597656 1.546875 -17.015625 C 2.003906 -17.441406 2.609375 -17.65625 3.359375 -17.65625 C 4.097656 -17.65625 4.691406 -17.441406 5.140625 -17.015625 C 5.597656 -16.597656 5.828125 -16.070312 5.828125 -15.4375 C 5.828125 -14.820312 5.597656 -14.304688 5.140625 -13.890625 C 4.691406 -13.484375 4.097656 -13.28125 3.359375 -13.28125 Z M 5.453125 -12.15625 L 5.453125 0 L 1.21875 0 L 1.21875 -12.15625 Z M 5.453125 -12.15625 "/></g></g></g><g fill="#ffffff" fill-opacity="1"><g transform="translate(68.898607, 20.53554)"><g><path d="M 9.15625 -12.25 C 10.5625 -12.25 11.675781 -11.785156 12.5 -10.859375 C 13.320312 -9.929688 13.734375 -8.671875 13.734375 -7.078125 L 13.734375 0 L 9.484375 0 L 9.484375 -6.515625 C 9.484375 -7.210938 9.300781 -7.757812 8.9375 -8.15625 C 8.582031 -8.550781 8.101562 -8.75 7.5 -8.75 C 6.863281 -8.75 6.363281 -8.550781 6 -8.15625 C 5.632812 -7.757812 5.453125 -7.210938 5.453125 -6.515625 L 5.453125 0 L 1.21875 0 L 1.21875 -12.15625 L 5.453125 -12.15625 L 5.453125 -10.421875 C 5.828125 -10.960938 6.332031 -11.398438 6.96875 -11.734375 C 7.601562 -12.078125 8.332031 -12.25 9.15625 -12.25 Z M 9.15625 -12.25 "/></g></g></g><g clip-path="url(#07fba87d79)"><g fill="#ffffff" fill-opacity="1"><g transform="translate(83.748112, 20.53554)"><g><path d="M 6.390625 0.15625 C 5.296875 0.15625 4.316406 -0.0234375 3.453125 -0.390625 C 2.597656 -0.765625 1.921875 -1.269531 1.421875 -1.90625 C 0.921875 -2.550781 0.640625 -3.28125 0.578125 -4.09375 L 4.703125 -4.09375 C 4.753906 -3.707031 4.929688 -3.40625 5.234375 -3.1875 C 5.546875 -2.96875 5.921875 -2.859375 6.359375 -2.859375 C 6.710938 -2.859375 6.988281 -2.929688 7.1875 -3.078125 C 7.394531 -3.222656 7.5 -3.410156 7.5 -3.640625 C 7.5 -3.941406 7.332031 -4.164062 7 -4.3125 C 6.664062 -4.457031 6.113281 -4.613281 5.34375 -4.78125 C 4.476562 -4.957031 3.753906 -5.15625 3.171875 -5.375 C 2.597656 -5.59375 2.097656 -5.945312 1.671875 -6.4375 C 1.253906 -6.925781 1.046875 -7.585938 1.046875 -8.421875 C 1.046875 -9.140625 1.238281 -9.789062 1.625 -10.375 C 2.007812 -10.96875 2.582031 -11.4375 3.34375 -11.78125 C 4.101562 -12.125 5.015625 -12.296875 6.078125 -12.296875 C 7.671875 -12.296875 8.921875 -11.90625 9.828125 -11.125 C 10.742188 -10.351562 11.269531 -9.332031 11.40625 -8.0625 L 7.578125 -8.0625 C 7.503906 -8.445312 7.332031 -8.742188 7.0625 -8.953125 C 6.800781 -9.160156 6.445312 -9.265625 6 -9.265625 C 5.65625 -9.265625 5.390625 -9.195312 5.203125 -9.0625 C 5.023438 -8.9375 4.9375 -8.757812 4.9375 -8.53125 C 4.9375 -8.238281 5.101562 -8.015625 5.4375 -7.859375 C 5.769531 -7.710938 6.300781 -7.5625 7.03125 -7.40625 C 7.914062 -7.21875 8.648438 -7.007812 9.234375 -6.78125 C 9.816406 -6.550781 10.328125 -6.175781 10.765625 -5.65625 C 11.210938 -5.144531 11.4375 -4.453125 11.4375 -3.578125 C 11.4375 -2.867188 11.226562 -2.234375 10.8125 -1.671875 C 10.40625 -1.109375 9.820312 -0.660156 9.0625 -0.328125 C 8.300781 -0.00390625 7.410156 0.15625 6.390625 0.15625 Z M 6.390625 0.15625 "/></g></g></g></g></svg>