<svg xmlns="http://www.w3.org/2000/svg" xmlns:xlink="http://www.w3.org/1999/xlink" width="130" zoomAndPan="magnify" viewBox="0 0 97.5 30.000001" height="40" preserveAspectRatio="xMidYMid meet" version="1.0"><defs><g/></defs><g fill="#ffffff" fill-opacity="1"><g transform="translate(18.132919, 18.955477)"><g><path d="M 8.5625 -6.5625 C 8.5625 -5.96875 8.421875 -5.425781 8.140625 -4.9375 C 7.867188 -4.445312 7.457031 -4.054688 6.90625 -3.765625 C 6.351562 -3.472656 5.675781 -3.328125 4.875 -3.328125 L 3.515625 -3.328125 L 3.515625 0 L 0.78125 0 L 0.78125 -9.84375 L 4.875 -9.84375 C 5.664062 -9.84375 6.335938 -9.703125 6.890625 -9.421875 C 7.441406 -9.148438 7.859375 -8.765625 8.140625 -8.265625 C 8.421875 -7.773438 8.5625 -7.207031 8.5625 -6.5625 Z M 4.609375 -5.5 C 5.378906 -5.5 5.765625 -5.851562 5.765625 -6.5625 C 5.765625 -7.28125 5.378906 -7.640625 4.609375 -7.640625 L 3.515625 -7.640625 L 3.515625 -5.5 Z M 4.609375 -5.5 "/></g></g></g><g fill="#ffffff" fill-opacity="1"><g transform="translate(27.016395, 18.955477)"><g><path d="M 4.421875 0.09375 C 3.640625 0.09375 2.9375 -0.0664062 2.3125 -0.390625 C 1.695312 -0.710938 1.210938 -1.175781 0.859375 -1.78125 C 0.503906 -2.394531 0.328125 -3.109375 0.328125 -3.921875 C 0.328125 -4.734375 0.503906 -5.441406 0.859375 -6.046875 C 1.222656 -6.648438 1.710938 -7.113281 2.328125 -7.4375 C 2.953125 -7.769531 3.65625 -7.9375 4.4375 -7.9375 C 5.21875 -7.9375 5.914062 -7.769531 6.53125 -7.4375 C 7.15625 -7.113281 7.644531 -6.648438 8 -6.046875 C 8.363281 -5.441406 8.546875 -4.734375 8.546875 -3.921875 C 8.546875 -3.109375 8.363281 -2.394531 8 -1.78125 C 7.644531 -1.175781 7.15625 -0.710938 6.53125 -0.390625 C 5.90625 -0.0664062 5.203125 0.09375 4.421875 0.09375 Z M 4.421875 -2.28125 C 4.804688 -2.28125 5.125 -2.421875 5.375 -2.703125 C 5.632812 -2.984375 5.765625 -3.390625 5.765625 -3.921875 C 5.765625 -4.453125 5.632812 -4.859375 5.375 -5.140625 C 5.125 -5.421875 4.8125 -5.5625 4.4375 -5.5625 C 4.070312 -5.5625 3.757812 -5.421875 3.5 -5.140625 C 3.25 -4.859375 3.125 -4.453125 3.125 -3.921875 C 3.125 -3.378906 3.242188 -2.96875 3.484375 -2.6875 C 3.734375 -2.414062 4.046875 -2.28125 4.421875 -2.28125 Z M 4.421875 -2.28125 "/></g></g></g><g fill="#ffffff" fill-opacity="1"><g transform="translate(35.899871, 18.955477)"><g><path d="M 3.515625 -6.75 C 3.734375 -7.113281 4.035156 -7.398438 4.421875 -7.609375 C 4.816406 -7.828125 5.28125 -7.9375 5.8125 -7.9375 C 6.4375 -7.9375 7 -7.769531 7.5 -7.4375 C 8.007812 -7.113281 8.410156 -6.648438 8.703125 -6.046875 C 9.003906 -5.441406 9.15625 -4.734375 9.15625 -3.921875 C 9.15625 -3.109375 9.003906 -2.394531 8.703125 -1.78125 C 8.410156 -1.175781 8.007812 -0.710938 7.5 -0.390625 C 7 -0.0664062 6.4375 0.09375 5.8125 0.09375 C 5.28125 0.09375 4.820312 -0.0078125 4.4375 -0.21875 C 4.050781 -0.4375 3.742188 -0.726562 3.515625 -1.09375 L 3.515625 3.75 L 0.78125 3.75 L 0.78125 -7.84375 L 3.515625 -7.84375 Z M 6.375 -3.921875 C 6.375 -4.429688 6.234375 -4.828125 5.953125 -5.109375 C 5.679688 -5.398438 5.34375 -5.546875 4.9375 -5.546875 C 4.539062 -5.546875 4.203125 -5.398438 3.921875 -5.109375 C 3.648438 -4.816406 3.515625 -4.421875 3.515625 -3.921875 C 3.515625 -3.410156 3.648438 -3.007812 3.921875 -2.71875 C 4.203125 -2.4375 4.539062 -2.296875 4.9375 -2.296875 C 5.34375 -2.296875 5.679688 -2.441406 5.953125 -2.734375 C 6.234375 -3.023438 6.375 -3.421875 6.375 -3.921875 Z M 6.375 -3.921875 "/></g></g></g><g fill="#ffffff" fill-opacity="1"><g transform="translate(45.397921, 18.955477)"><g><path d="M 3.515625 -6.75 C 3.734375 -7.113281 4.035156 -7.398438 4.421875 -7.609375 C 4.816406 -7.828125 5.28125 -7.9375 5.8125 -7.9375 C 6.4375 -7.9375 7 -7.769531 7.5 -7.4375 C 8.007812 -7.113281 8.410156 -6.648438 8.703125 -6.046875 C 9.003906 -5.441406 9.15625 -4.734375 9.15625 -3.921875 C 9.15625 -3.109375 9.003906 -2.394531 8.703125 -1.78125 C 8.410156 -1.175781 8.007812 -0.710938 7.5 -0.390625 C 7 -0.0664062 6.4375 0.09375 5.8125 0.09375 C 5.28125 0.09375 4.820312 -0.0078125 4.4375 -0.21875 C 4.050781 -0.4375 3.742188 -0.726562 3.515625 -1.09375 L 3.515625 3.75 L 0.78125 3.75 L 0.78125 -7.84375 L 3.515625 -7.84375 Z M 6.375 -3.921875 C 6.375 -4.429688 6.234375 -4.828125 5.953125 -5.109375 C 5.679688 -5.398438 5.34375 -5.546875 4.9375 -5.546875 C 4.539062 -5.546875 4.203125 -5.398438 3.921875 -5.109375 C 3.648438 -4.816406 3.515625 -4.421875 3.515625 -3.921875 C 3.515625 -3.410156 3.648438 -3.007812 3.921875 -2.71875 C 4.203125 -2.4375 4.539062 -2.296875 4.9375 -2.296875 C 5.34375 -2.296875 5.679688 -2.441406 5.953125 -2.734375 C 6.234375 -3.023438 6.375 -3.421875 6.375 -3.921875 Z M 6.375 -3.921875 "/></g></g></g><g fill="#ffffff" fill-opacity="1"><g transform="translate(54.895971, 18.955477)"><g><path d="M 2.171875 -8.5625 C 1.679688 -8.5625 1.289062 -8.691406 1 -8.953125 C 0.707031 -9.222656 0.5625 -9.554688 0.5625 -9.953125 C 0.5625 -10.367188 0.707031 -10.710938 1 -10.984375 C 1.289062 -11.253906 1.679688 -11.390625 2.171875 -11.390625 C 2.640625 -11.390625 3.019531 -11.253906 3.3125 -10.984375 C 3.601562 -10.710938 3.75 -10.367188 3.75 -9.953125 C 3.75 -9.554688 3.601562 -9.222656 3.3125 -8.953125 C 3.019531 -8.691406 2.640625 -8.5625 2.171875 -8.5625 Z M 3.515625 -7.84375 L 3.515625 0 L 0.78125 0 L 0.78125 -7.84375 Z M 3.515625 -7.84375 "/></g></g></g><g fill="#ffffff" fill-opacity="1"><g transform="translate(59.198029, 18.955477)"><g><path d="M 5.90625 -7.90625 C 6.8125 -7.90625 7.53125 -7.601562 8.0625 -7 C 8.59375 -6.40625 8.859375 -5.59375 8.859375 -4.5625 L 8.859375 0 L 6.125 0 L 6.125 -4.203125 C 6.125 -4.648438 6.003906 -5 5.765625 -5.25 C 5.535156 -5.507812 5.222656 -5.640625 4.828125 -5.640625 C 4.421875 -5.640625 4.097656 -5.507812 3.859375 -5.25 C 3.628906 -5 3.515625 -4.648438 3.515625 -4.203125 L 3.515625 0 L 0.78125 0 L 0.78125 -7.84375 L 3.515625 -7.84375 L 3.515625 -6.71875 C 3.765625 -7.070312 4.09375 -7.359375 4.5 -7.578125 C 4.90625 -7.796875 5.375 -7.90625 5.90625 -7.90625 Z M 5.90625 -7.90625 "/></g></g></g><g fill="#ffffff" fill-opacity="1"><g transform="translate(68.779892, 18.955477)"><g><path d="M 4.125 0.09375 C 3.414062 0.09375 2.78125 -0.0195312 2.21875 -0.25 C 1.664062 -0.488281 1.226562 -0.816406 0.90625 -1.234375 C 0.59375 -1.648438 0.414062 -2.117188 0.375 -2.640625 L 3.03125 -2.640625 C 3.070312 -2.390625 3.1875 -2.191406 3.375 -2.046875 C 3.570312 -1.910156 3.816406 -1.84375 4.109375 -1.84375 C 4.328125 -1.84375 4.5 -1.890625 4.625 -1.984375 C 4.757812 -2.078125 4.828125 -2.195312 4.828125 -2.34375 C 4.828125 -2.539062 4.71875 -2.6875 4.5 -2.78125 C 4.289062 -2.875 3.941406 -2.976562 3.453125 -3.09375 C 2.890625 -3.195312 2.421875 -3.316406 2.046875 -3.453125 C 1.679688 -3.597656 1.359375 -3.828125 1.078125 -4.140625 C 0.804688 -4.460938 0.671875 -4.894531 0.671875 -5.4375 C 0.671875 -5.894531 0.796875 -6.3125 1.046875 -6.6875 C 1.296875 -7.070312 1.664062 -7.375 2.15625 -7.59375 C 2.644531 -7.820312 3.234375 -7.9375 3.921875 -7.9375 C 4.953125 -7.9375 5.757812 -7.679688 6.34375 -7.171875 C 6.925781 -6.671875 7.265625 -6.015625 7.359375 -5.203125 L 4.890625 -5.203125 C 4.835938 -5.453125 4.722656 -5.644531 4.546875 -5.78125 C 4.378906 -5.914062 4.15625 -5.984375 3.875 -5.984375 C 3.644531 -5.984375 3.472656 -5.941406 3.359375 -5.859375 C 3.242188 -5.773438 3.1875 -5.65625 3.1875 -5.5 C 3.1875 -5.3125 3.289062 -5.171875 3.5 -5.078125 C 3.71875 -4.984375 4.066406 -4.882812 4.546875 -4.78125 C 5.109375 -4.65625 5.578125 -4.519531 5.953125 -4.375 C 6.328125 -4.226562 6.65625 -3.988281 6.9375 -3.65625 C 7.226562 -3.320312 7.375 -2.875 7.375 -2.3125 C 7.375 -1.851562 7.238281 -1.441406 6.96875 -1.078125 C 6.707031 -0.710938 6.332031 -0.425781 5.84375 -0.21875 C 5.351562 -0.0078125 4.78125 0.09375 4.125 0.09375 Z M 4.125 0.09375 "/></g></g></g><g fill="#ffffff" fill-opacity="1"><g transform="translate(76.704483, 18.955477)"><g/></g></g></svg>